<svg xmlns="http://www.w3.org/2000/svg" viewBox="0 0 64 64">
  <rect width="64" height="64" rx="14" fill="#1a2a3a"/>
  <circle cx="32" cy="24" r="12" fill="#f39c12"/>
  <g fill="#f1c40f" opacity="0.6">
    <line x1="32" y1="6" x2="32" y2="12" stroke="#f1c40f" stroke-width="2" stroke-linecap="round"/>
    <line x1="32" y1="36" x2="32" y2="42" stroke="#f1c40f" stroke-width="2" stroke-linecap="round"/>
    <line x1="14" y1="24" x2="20" y2="24" stroke="#f1c40f" stroke-width="2" stroke-linecap="round"/>
    <line x1="44" y1="24" x2="50" y2="24" stroke="#f1c40f" stroke-width="2" stroke-linecap="round"/>
    <line x1="19" y1="11" x2="23" y2="15" stroke="#f1c40f" stroke-width="2" stroke-linecap="round"/>
    <line x1="41" y1="15" x2="45" y2="11" stroke="#f1c40f" stroke-width="2" stroke-linecap="round"/>
    <line x1="19" y1="37" x2="23" y2="33" stroke="#f1c40f" stroke-width="2" stroke-linecap="round"/>
    <line x1="41" y1="33" x2="45" y2="37" stroke="#f1c40f" stroke-width="2" stroke-linecap="round"/>
  </g>
  <path d="M20 46 Q20 40 26 40 Q28 34 34 36 Q38 32 44 36 Q48 34 48 42 Q48 46 44 46 Z" fill="#4a90d9" opacity="0.8"/>
</svg>
