<svg xmlns="http://www.w3.org/2000/svg" viewBox="0 0 1000 500" font-family="'Noto Sans','DejaVu Sans',sans-serif">
  <defs>
    <linearGradient id="wbg2" x1="0" y1="0" x2="0" y2="1">
      <stop offset="0%" stop-color="#1a1a2e"/><stop offset="100%" stop-color="#0f3460"/>
    </linearGradient>
    <linearGradient id="wcard" x1="0" y1="0" x2="0" y2="1">
      <stop offset="0%" stop-color="rgba(15,52,96,0.4)"/><stop offset="100%" stop-color="rgba(15,40,80,0.5)"/>
    </linearGradient>
  </defs>

  <rect width="1000" height="500" fill="url(#wbg2)"/>

  <!-- Title -->
  <text x="500" y="32" font-size="18" fill="white" text-anchor="middle" font-weight="bold">Karya DE Widget Koleksiyonu</text>
  <text x="500" y="52" font-size="12" fill="rgba(255,255,255,0.3)" text-anchor="middle">4 ozel widget - Tumu SVG ikonlar, emoji yok</text>

  <!-- ===== KARYA HAVA ===== -->
  <rect x="20" y="70" width="230" height="400" rx="14" fill="url(#wcard)" stroke="rgba(255,255,255,0.04)"/>
  <text x="135" y="100" font-size="15" fill="white" text-anchor="middle" font-weight="bold">Karya Hava</text>
  <rect x="30" y="110" width="210" height="36" rx="8" fill="rgba(255,255,255,0.05)"/>
  <text x="135" y="132" font-size="12" fill="rgba(255,255,255,0.6)" text-anchor="middle">Istanbul</text>
  <rect x="30" y="154" width="210" height="120" rx="12" fill="rgba(15,52,96,0.4)"/>
  <text x="135" y="190" font-size="36" fill="white" text-anchor="middle" font-weight="bold">24 C</text>
  <text x="135" y="214" font-size="11" fill="rgba(255,255,255,0.5)" text-anchor="middle">Acik, hissedilen 22 C</text>
  <text x="135" y="234" font-size="10" fill="rgba(255,255,255,0.3)" text-anchor="middle">Nem: %45  Ruzgar: 12 km/h</text>
  <rect x="30" y="282" width="210" height="50" rx="10" fill="rgba(15,52,96,0.2)"/>
  <g transform="translate(35, 295)">
    <text x="0" y="10" font-size="9" fill="rgba(255,255,255,0.3)">12:00</text><text x="30" y="10" font-size="9" fill="rgba(255,255,255,0.3)">15:00</text><text x="60" y="10" font-size="9" fill="rgba(255,255,255,0.3)">18:00</text>
    <text x="90" y="10" font-size="9" fill="rgba(255,255,255,0.3)">21:00</text><text x="120" y="10" font-size="9" fill="rgba(255,255,255,0.3)">00:00</text><text x="150" y="10" font-size="9" fill="rgba(255,255,255,0.3)">03:00</text>
    <text x="0" y="30" font-size="11" fill="white">24</text><text x="30" y="30" font-size="11" fill="white">26</text><text x="60" y="30" font-size="11" fill="white">22</text>
    <text x="90" y="30" font-size="11" fill="white">19</text><text x="120" y="30" font-size="11" fill="white">17</text><text x="150" y="30" font-size="11" fill="white">16</text>
  </g>
  <rect x="30" y="340" width="210" height="80" rx="10" fill="rgba(15,52,96,0.15)"/>
  <g transform="translate(35, 350)">
    <text x="0" y="10" font-size="9" fill="rgba(255,255,255,0.3)">Pzt</text>
    <text x="26" y="10" font-size="9" fill="rgba(255,255,255,0.3)">Sal</text>
    <text x="52" y="10" font-size="9" fill="rgba(255,255,255,0.3)">Car</text>
    <text x="78" y="10" font-size="9" fill="rgba(255,255,255,0.3)">Per</text>
    <text x="104" y="10" font-size="9" fill="rgba(255,255,255,0.3)">Cum</text>
    <text x="130" y="10" font-size="9" fill="rgba(255,255,255,0.3)">Cmt</text>
    <text x="156" y="10" font-size="9" fill="rgba(255,255,255,0.3)">Paz</text>
    <text y="30" font-size="9" fill="white">26</text>
    <text x="26" y="30" font-size="9" fill="white">28</text>
    <text x="52" y="30" font-size="9" fill="white">22</text>
    <text x="78" y="30" font-size="9" fill="white">18</text>
    <text x="104" y="30" font-size="9" fill="white">25</text>
    <text x="130" y="30" font-size="9" fill="white">23</text>
    <text x="156" y="30" font-size="9" fill="white">27</text>
  </g>

  <!-- ===== KARYA NAMAZ ===== -->
  <rect x="265" y="70" width="230" height="400" rx="14" fill="url(#wcard)" stroke="rgba(255,255,255,0.04)"/>
  <text x="380" y="100" font-size="15" fill="white" text-anchor="middle" font-weight="bold">Karya Namaz</text>
  <rect x="275" y="110" width="210" height="36" rx="8" fill="rgba(255,255,255,0.05)"/>
  <text x="380" y="132" font-size="12" fill="rgba(255,255,255,0.6)" text-anchor="middle">Istanbul</text>
  <text x="380" y="155" font-size="11" fill="rgba(255,255,255,0.3)" text-anchor="middle">18 Temmuz 2026</text>

  <rect x="275" y="170" width="210" height="210" rx="12" fill="rgba(15,52,96,0.3)"/>
  <g transform="translate(288, 180)">
    <rect x="0" y="0" width="185" height="28" rx="6" fill="transparent"/>
    <text x="10" y="19" font-size="12" fill="rgba(255,255,255,0.5)">Imsak</text><text x="160" y="19" font-size="12" fill="white" text-anchor="end">04:28</text>
    <rect x="0" y="32" width="185" height="28" rx="6" fill="transparent"/>
    <text x="10" y="51" font-size="12" fill="rgba(255,255,255,0.5)">Gunes</text><text x="160" y="51" font-size="12" fill="white" text-anchor="end">06:02</text>
    <rect x="0" y="64" width="185" height="28" rx="6" fill="transparent"/>
    <text x="10" y="83" font-size="12" fill="rgba(255,255,255,0.5)">Ogle</text><text x="160" y="83" font-size="12" fill="white" text-anchor="end">13:15</text>
    <rect x="0" y="96" width="185" height="28" rx="6" fill="transparent"/>
    <text x="10" y="115" font-size="12" fill="rgba(255,255,255,0.5)">Ikindi</text><text x="160" y="115" font-size="12" fill="white" text-anchor="end">17:10</text>
    <rect x="0" y="128" width="185" height="28" rx="6" fill="rgba(255,215,0,0.1)" stroke="rgba(255,215,0,0.2)"/>
    <text x="10" y="147" font-size="13" fill="#FFD700" font-weight="bold">Aksam</text><text x="160" y="147" font-size="13" fill="#FFD700" font-weight="bold" text-anchor="end">20:25</text>
    <rect x="0" y="160" width="185" height="28" rx="6" fill="transparent"/>
    <text x="10" y="179" font-size="12" fill="rgba(255,255,255,0.5)">Yatsi</text><text x="160" y="179" font-size="12" fill="white" text-anchor="end">22:00</text>
  </g>

  <rect x="275" y="390" width="210" height="40" rx="10" fill="rgba(255,215,0,0.06)" stroke="rgba(255,215,0,0.08)"/>
  <text x="380" y="415" font-size="13" fill="#FFD700" text-anchor="middle" font-weight="bold">Aksam'a kalan: 2s 45dk</text>

  <!-- ===== KARYA HABER ===== -->
  <rect x="510" y="70" width="230" height="400" rx="14" fill="url(#wcard)" stroke="rgba(255,255,255,0.04)"/>
  <text x="625" y="100" font-size="15" fill="white" text-anchor="middle" font-weight="bold">Karya Haber</text>
  <g transform="translate(525, 120)">
    <rect x="0" y="0" width="200" height="44" rx="8" fill="rgba(255,255,255,0.02)"/>
    <rect x="4" y="6" width="3" height="32" rx="1.5" fill="#e74c3c"/>
    <text x="16" y="20" font-size="12" fill="white">Cumhurbaskani yeni projeleri...</text>
    <text x="16" y="36" font-size="9" fill="rgba(255,255,255,0.3)">Anadolu Ajansi - 10:24</text>

    <rect x="0" y="48" width="200" height="44" rx="8" fill="rgba(255,255,255,0.02)"/>
    <rect x="4" y="54" width="3" height="32" rx="1.5" fill="#f39c12"/>
    <text x="16" y="68" font-size="12" fill="white">Borsa gunu yukselisle kapatti</text>
    <text x="16" y="84" font-size="9" fill="rgba(255,255,255,0.3)">Bloomberg HT - 18:15</text>

    <rect x="0" y="96" width="200" height="44" rx="8" fill="rgba(255,255,255,0.02)"/>
    <rect x="4" y="102" width="3" height="32" rx="1.5" fill="#3498db"/>
    <text x="16" y="116" font-size="12" fill="white">Karya DE 1.0 surumu yayinlandi</text>
    <text x="16" y="132" font-size="9" fill="rgba(255,255,255,0.3)">Karya - 09:00</text>

    <rect x="0" y="144" width="200" height="44" rx="8" fill="rgba(255,255,255,0.02)"/>
    <rect x="4" y="150" width="3" height="32" rx="1.5" fill="#2ecc71"/>
    <text x="16" y="164" font-size="12" fill="white">Milli takim hazirlik macinda..</text>
    <text x="16" y="180" font-size="9" fill="rgba(255,255,255,0.3)">TFF - 22:45</text>

    <rect x="0" y="192" width="200" height="44" rx="8" fill="rgba(255,255,255,0.02)"/>
    <rect x="4" y="198" width="3" height="32" rx="1.5" fill="#9b59b6"/>
    <text x="16" y="212" font-size="12" fill="white">Turk bilim insanlarindan basari</text>
    <text x="16" y="228" font-size="9" fill="rgba(255,255,255,0.3)">TUBITAK - 13:45</text>
  </g>

  <!-- ===== KARYA SISTEM ===== -->
  <rect x="755" y="70" width="230" height="400" rx="14" fill="url(#wcard)" stroke="rgba(255,255,255,0.04)"/>
  <text x="870" y="100" font-size="15" fill="white" text-anchor="middle" font-weight="bold">Karya Sistem</text>

  <!-- CPU -->
  <rect x="765" y="120" width="210" height="70" rx="12" fill="rgba(15,52,96,0.3)"/>
  <g transform="translate(778, 134)">
    <rect x="0" y="0" width="22" height="22" rx="6" fill="rgba(74,144,217,0.2)"/>
    <text x="11" y="16" font-size="11" fill="#4a90d9" text-anchor="middle">C</text>
    <text x="34" y="14" font-size="11" fill="rgba(255,255,255,0.4)">Islemci</text>
    <text x="150" y="14" font-size="18" fill="#4a90d9" font-weight="bold">%45</text>
    <rect x="34" y="24" width="110" height="6" rx="3" fill="rgba(255,255,255,0.06)"/>
    <rect x="34" y="24" width="50" height="6" rx="3" fill="#4a90d9"/>
  </g>

  <!-- RAM -->
  <rect x="765" y="200" width="210" height="70" rx="12" fill="rgba(15,52,96,0.3)"/>
  <g transform="translate(778, 214)">
    <rect x="0" y="0" width="22" height="22" rx="6" fill="rgba(108,92,231,0.2)"/>
    <text x="11" y="16" font-size="11" fill="#6c5ce7" text-anchor="middle">R</text>
    <text x="34" y="14" font-size="11" fill="rgba(255,255,255,0.4)">Bellek</text>
    <text x="130" y="14" font-size="14" fill="#6c5ce7" font-weight="bold">3.2/8.0 GB</text>
    <rect x="34" y="24" width="110" height="6" rx="3" fill="rgba(255,255,255,0.06)"/>
    <rect x="34" y="24" width="44" height="6" rx="3" fill="#6c5ce7"/>
  </g>

  <!-- Disk -->
  <rect x="765" y="280" width="210" height="70" rx="12" fill="rgba(15,52,96,0.3)"/>
  <g transform="translate(778, 294)">
    <rect x="0" y="0" width="22" height="22" rx="6" fill="rgba(46,204,113,0.2)"/>
    <text x="11" y="16" font-size="11" fill="#2ecc71" text-anchor="middle">D</text>
    <text x="34" y="14" font-size="11" fill="rgba(255,255,255,0.4)">Disk</text>
    <text x="130" y="14" font-size="14" fill="#2ecc71" font-weight="bold">45.2/256 GB</text>
    <rect x="34" y="24" width="110" height="6" rx="3" fill="rgba(255,255,255,0.06)"/>
    <rect x="34" y="24" width="20" height="6" rx="3" fill="#2ecc71"/>
  </g>

  <!-- Network -->
  <rect x="765" y="360" width="210" height="70" rx="12" fill="rgba(15,52,96,0.3)"/>
  <g transform="translate(778, 374)">
    <rect x="0" y="0" width="22" height="22" rx="6" fill="rgba(241,196,15,0.2)"/>
    <text x="11" y="16" font-size="11" fill="#f39c12" text-anchor="middle">N</text>
    <text x="34" y="14" font-size="11" fill="rgba(255,255,255,0.4)">Ag</text>
    <text x="140" y="14" font-size="13" fill="#2ecc71">In: 1.2 MB/s</text>
    <text x="140" y="32" font-size="13" fill="#e74c3c">Out: 340 KB/s</text>
  </g>

  <!-- Footer -->
  <text x="500" y="488" font-size="11" fill="rgba(255,255,255,0.15)" text-anchor="middle">Tum widgetlar SVG ikon kullanir, emoji icermez - Kirigami uyumlu</text>
</svg>
